<svg width="151" height="50" viewBox="0 0 151 50" fill="none" xmlns="http://www.w3.org/2000/svg">
<path d="M38.2103 15.63C38.2103 17.89 37.3703 19.67 35.6903 20.97C34.1703 22.17 32.2503 22.77 29.9303 22.77C28.7303 22.77 27.5803 22.61 26.4803 22.29C25.1203 21.91 24.1403 21.35 23.5403 20.61C23.2003 20.19 23.0303 19.77 23.0303 19.35C23.0303 18.67 23.2603 18.14 23.7203 17.76C24.1803 17.38 24.7503 17.19 25.4303 17.19C25.7903 17.19 26.5503 17.36 27.7103 17.7C28.9503 18.06 29.9203 18.24 30.6203 18.24C31.3003 18.24 31.8703 18.05 32.3303 17.67C32.8103 17.27 33.0503 16.74 33.0503 16.08C33.0503 15.22 32.7203 14.6 32.0603 14.22C31.4803 13.88 30.5603 13.52 29.3003 13.14C27.3803 12.56 25.9803 11.9 25.1003 11.16C23.8803 10.16 23.2703 8.8 23.2703 7.08C23.2703 4.98 24.0503 3.31 25.6103 2.07C27.0703 0.909999 28.8703 0.329999 31.0103 0.329999C32.8103 0.329999 34.2303 0.64 35.2703 1.26C36.3303 1.88 36.8603 2.61 36.8603 3.45C36.8603 4.83 36.1203 5.52 34.6403 5.52C34.2003 5.52 33.5803 5.4 32.7803 5.16C32.0003 4.9 31.3603 4.77 30.8603 4.77C30.2203 4.77 29.6803 4.91 29.2403 5.19C28.7403 5.51 28.4903 5.98 28.4903 6.6C28.4903 6.96 28.5803 7.27 28.7603 7.53C29.0003 7.87 29.5503 8.2 30.4103 8.52C31.0503 8.72 31.6903 8.92 32.3303 9.12C34.1903 9.76 35.5703 10.51 36.4703 11.37C37.6303 12.47 38.2103 13.89 38.2103 15.63ZM43.603 5.25C41.803 5.25 40.683 5.2 40.243 5.1C38.883 4.82 38.203 4.1 38.203 2.94C38.203 1.38 39.393 0.599999 41.773 0.599999H50.443C52.803 0.599999 53.983 1.38 53.983 2.94C53.983 4.1 53.303 4.82 51.943 5.1C51.503 5.2 50.383 5.25 48.583 5.25V19.23C48.583 21.59 47.753 22.77 46.093 22.77C44.433 22.77 43.603 21.59 43.603 19.23V5.25ZM55.3436 12.72V3.87C55.3436 1.51 56.1736 0.329999 57.8336 0.329999C59.4936 0.329999 60.3236 1.51 60.3236 3.87V12.15C60.3236 16.03 61.7936 17.97 64.7336 17.97C67.6736 17.97 69.1436 16.03 69.1436 12.15V3.87C69.1436 1.51 69.9736 0.329999 71.6336 0.329999C73.2936 0.329999 74.1236 1.51 74.1236 3.87V12.72C74.1236 15.8 73.3336 18.22 71.7536 19.98C70.1136 21.84 67.7736 22.77 64.7336 22.77C61.6936 22.77 59.3536 21.84 57.7136 19.98C56.1336 18.22 55.3436 15.8 55.3436 12.72ZM85.2627 0.3C87.0427 0.3 88.2727 1.26 88.9527 3.18L94.4727 18.93C94.7127 19.61 94.8327 20.13 94.8327 20.49C94.8327 21.17 94.5927 21.72 94.1127 22.14C93.6327 22.56 93.0527 22.77 92.3727 22.77C91.1127 22.77 90.2327 21.98 89.7327 20.4L88.9227 17.82H81.1827L80.2827 20.58C79.8027 22.04 79.0027 22.77 77.8827 22.77C77.1827 22.77 76.6127 22.56 76.1727 22.14C75.7327 21.7 75.5127 21.13 75.5127 20.43C75.5127 19.91 75.5927 19.43 75.7527 18.99L81.4527 3.54C82.2527 1.38 83.5227 0.3 85.2627 0.3ZM85.1127 5.73L82.6227 13.41H87.5727L85.1727 5.73H85.1127ZM101.691 10.53H104.001C106.121 10.53 107.181 9.62 107.181 7.8C107.181 6.06 106.141 5.19 104.061 5.19H101.691V10.53ZM101.691 13.83V19.23C101.691 21.59 100.861 22.77 99.2007 22.77C97.5407 22.77 96.7107 21.59 96.7107 19.23V4.11C96.7107 2.81 96.9607 1.9 97.4607 1.38C97.9607 0.859999 98.8607 0.599999 100.161 0.599999H104.031C106.431 0.599999 108.371 1.12 109.851 2.16C111.531 3.36 112.371 5.12 112.371 7.44C112.371 9.06 111.901 10.39 110.961 11.43C110.041 12.45 108.771 13.09 107.151 13.35L111.081 17.73C112.061 18.83 112.551 19.78 112.551 20.58C112.551 21.26 112.321 21.82 111.861 22.26C111.421 22.7 110.861 22.92 110.181 22.92C109.341 22.92 108.451 22.33 107.511 21.15L101.691 13.83ZM117.929 5.25C116.129 5.25 115.009 5.2 114.569 5.1C113.209 4.82 112.529 4.1 112.529 2.94C112.529 1.38 113.719 0.599999 116.099 0.599999H124.769C127.129 0.599999 128.309 1.38 128.309 2.94C128.309 4.1 127.629 4.82 126.269 5.1C125.829 5.2 124.709 5.25 122.909 5.25V19.23C122.909 21.59 122.079 22.77 120.419 22.77C118.759 22.77 117.929 21.59 117.929 19.23V5.25Z" fill="#426AFA"/>
<path d="M9.35473 27.6C11.7147 27.6 12.8947 28.38 12.8947 29.94C12.8947 31.48 11.7147 32.25 9.35473 32.25H5.27473V36.15H8.78473C11.1447 36.15 12.3247 36.92 12.3247 38.46C12.3247 40 11.1447 40.77 8.78473 40.77H5.27473V44.88H9.50473C11.8647 44.88 13.0447 45.65 13.0447 47.19C13.0447 48.73 11.8647 49.5 9.50473 49.5H3.68473C2.42473 49.5 1.54473 49.29 1.04473 48.87C0.544727 48.43 0.294727 47.59 0.294727 46.35V31.11C0.294727 29.81 0.544727 28.9 1.04473 28.38C1.54473 27.86 2.44473 27.6 3.74473 27.6H9.35473ZM15.7021 49.77C15.1421 49.77 14.6221 49.55 14.1421 49.11C13.6821 48.67 13.4521 48.17 13.4521 47.61C13.4521 46.93 13.8221 46.09 14.5621 45.09L19.8721 37.89L15.8821 32.07C15.1421 30.99 14.7721 30.17 14.7721 29.61C14.7721 28.93 15.0021 28.38 15.4621 27.96C15.9221 27.54 16.4921 27.33 17.1721 27.33C18.0521 27.33 18.9121 27.97 19.7521 29.25L22.7821 33.84L25.9621 29.19C26.8021 27.95 27.6921 27.33 28.6321 27.33C29.2121 27.33 29.7221 27.55 30.1621 27.99C30.6021 28.41 30.8221 28.91 30.8221 29.49C30.8221 30.11 30.4421 30.97 29.6821 32.07L25.6621 37.89L31.0021 45.12C31.7621 46.14 32.1421 46.98 32.1421 47.64C32.1421 48.22 31.9121 48.72 31.4521 49.14C30.9921 49.56 30.4621 49.77 29.8621 49.77C28.9221 49.77 28.0221 49.16 27.1621 47.94L22.7221 41.7L18.3121 47.91C17.4321 49.15 16.5621 49.77 15.7021 49.77ZM42.4079 49.77C39.1879 49.77 36.6179 48.7 34.6979 46.56C32.8779 44.5 31.9679 41.84 31.9679 38.58C31.9679 35.38 32.9079 32.73 34.7879 30.63C36.7479 28.43 39.3079 27.33 42.4679 27.33C43.4679 27.33 44.3379 27.42 45.0779 27.6C46.0179 27.82 46.8379 28.16 47.5379 28.62C48.4379 29.24 48.8879 29.94 48.8879 30.72C48.8879 31.3 48.6879 31.81 48.2879 32.25C47.8879 32.67 47.3979 32.88 46.8179 32.88C46.3179 32.88 45.6979 32.74 44.9579 32.46C44.2179 32.16 43.3979 32.01 42.4979 32.01C40.7579 32.01 39.4179 32.72 38.4779 34.14C37.6579 35.36 37.2479 36.88 37.2479 38.7C37.2479 40.54 37.6779 42.03 38.5379 43.17C39.4979 44.45 40.8679 45.09 42.6479 45.09C43.4279 45.09 44.2979 44.91 45.2579 44.55C46.2179 44.19 46.8579 44.01 47.1779 44.01C47.7379 44.01 48.2079 44.23 48.5879 44.67C48.9679 45.11 49.1579 45.61 49.1579 46.17C49.1579 46.63 48.9979 47.08 48.6779 47.52C47.5779 49.02 45.4879 49.77 42.4079 49.77ZM56.1048 40.65V46.23C56.1048 48.59 55.2748 49.77 53.6148 49.77C51.9548 49.77 51.1248 48.59 51.1248 46.23V30.87C51.1248 28.51 51.9548 27.33 53.6148 27.33C55.2748 27.33 56.1048 28.51 56.1048 30.87V36.03H65.2848V30.87C65.2848 28.51 66.1148 27.33 67.7748 27.33C69.4348 27.33 70.2648 28.51 70.2648 30.87V46.23C70.2648 48.59 69.4348 49.77 67.7748 49.77C66.1148 49.77 65.2848 48.59 65.2848 46.23V40.65H56.1048ZM81.9521 27.3C83.7321 27.3 84.9621 28.26 85.6421 30.18L91.1621 45.93C91.4021 46.61 91.5222 47.13 91.5222 47.49C91.5222 48.17 91.2821 48.72 90.8021 49.14C90.3221 49.56 89.7421 49.77 89.0621 49.77C87.8021 49.77 86.9221 48.98 86.4221 47.4L85.6121 44.82H77.8721L76.9721 47.58C76.4921 49.04 75.6921 49.77 74.5721 49.77C73.8721 49.77 73.3021 49.56 72.8621 49.14C72.4221 48.7 72.2021 48.13 72.2021 47.43C72.2021 46.91 72.2821 46.43 72.4421 45.99L78.1421 30.54C78.9421 28.38 80.2121 27.3 81.9521 27.3ZM81.8021 32.73L79.3121 40.41H84.2621L81.8621 32.73H81.8021ZM95.8902 49.77C94.2302 49.77 93.4002 48.59 93.4002 46.23V30.69C93.4002 28.45 94.1702 27.33 95.7102 27.33C96.6502 27.33 97.5302 27.87 98.3502 28.95L107.56 41.13V30.87C107.56 28.51 108.39 27.33 110.05 27.33C111.71 27.33 112.54 28.51 112.54 30.87V46.8C112.54 48.86 111.78 49.89 110.26 49.89C109.26 49.89 108.31 49.29 107.41 48.09L98.3802 36.15V46.23C98.3802 48.59 97.5502 49.77 95.8902 49.77ZM128.518 36.39H132.118C133.298 36.39 134.158 36.64 134.698 37.14C135.238 37.62 135.508 38.44 135.508 39.6C135.508 42.62 134.598 45.07 132.778 46.95C130.958 48.83 128.548 49.77 125.548 49.77C122.408 49.77 119.898 48.66 118.018 46.44C116.218 44.34 115.318 41.7 115.318 38.52C115.318 35.16 116.278 32.46 118.198 30.42C120.118 28.36 122.748 27.33 126.088 27.33C127.508 27.33 128.848 27.53 130.108 27.93C131.648 28.43 132.748 29.16 133.408 30.12C133.768 30.64 133.948 31.16 133.948 31.68C133.948 32.28 133.748 32.81 133.348 33.27C132.948 33.73 132.458 33.96 131.878 33.96C131.538 33.96 130.738 33.63 129.478 32.97C128.238 32.29 127.058 31.95 125.938 31.95C124.158 31.95 122.788 32.61 121.828 33.93C120.988 35.07 120.568 36.57 120.568 38.43C120.568 40.29 120.978 41.83 121.798 43.05C122.758 44.45 124.128 45.15 125.908 45.15C127.208 45.15 128.248 44.77 129.028 44.01C129.828 43.25 130.228 42.22 130.228 40.92C128.508 40.92 127.438 40.87 127.018 40.77C125.738 40.49 125.098 39.79 125.098 38.67C125.098 37.15 126.238 36.39 128.518 36.39ZM147.138 27.6C149.498 27.6 150.678 28.38 150.678 29.94C150.678 31.48 149.498 32.25 147.138 32.25H143.058V36.15H146.568C148.928 36.15 150.108 36.92 150.108 38.46C150.108 40 148.928 40.77 146.568 40.77H143.058V44.88H147.288C149.648 44.88 150.828 45.65 150.828 47.19C150.828 48.73 149.648 49.5 147.288 49.5H141.468C140.208 49.5 139.328 49.29 138.828 48.87C138.328 48.43 138.078 47.59 138.078 46.35V31.11C138.078 29.81 138.328 28.9 138.828 28.38C139.328 27.86 140.228 27.6 141.528 27.6H147.138Z" fill="black"/>
</svg>
