<svg width="153" height="50" viewBox="0 0 153 50" fill="none" xmlns="http://www.w3.org/2000/svg">
<path d="M15.93 15.63C15.93 17.89 15.09 19.67 13.41 20.97C11.89 22.17 9.97 22.77 7.65 22.77C6.45 22.77 5.3 22.61 4.2 22.29C2.84 21.91 1.86 21.35 1.26 20.61C0.92 20.19 0.75 19.77 0.75 19.35C0.75 18.67 0.98 18.14 1.44 17.76C1.9 17.38 2.47 17.19 3.15 17.19C3.51 17.19 4.27 17.36 5.43 17.7C6.67 18.06 7.64 18.24 8.34 18.24C9.02 18.24 9.59 18.05 10.05 17.67C10.53 17.27 10.77 16.74 10.77 16.08C10.77 15.22 10.44 14.6 9.78 14.22C9.2 13.88 8.28 13.52 7.02 13.14C5.1 12.56 3.7 11.9 2.82 11.16C1.6 10.16 0.99 8.8 0.99 7.08C0.99 4.98 1.77 3.31 3.33 2.07C4.79 0.909999 6.59 0.329999 8.73 0.329999C10.53 0.329999 11.95 0.64 12.99 1.26C14.05 1.88 14.58 2.61 14.58 3.45C14.58 4.83 13.84 5.52 12.36 5.52C11.92 5.52 11.3 5.4 10.5 5.16C9.72 4.9 9.08 4.77 8.58 4.77C7.94 4.77 7.4 4.91 6.96 5.19C6.46 5.51 6.21 5.98 6.21 6.6C6.21 6.96 6.3 7.27 6.48 7.53C6.72 7.87 7.27 8.2 8.13 8.52C8.77 8.72 9.41 8.92 10.05 9.12C11.91 9.76 13.29 10.51 14.19 11.37C15.35 12.47 15.93 13.89 15.93 15.63ZM21.3227 5.25C19.5227 5.25 18.4027 5.2 17.9627 5.1C16.6027 4.82 15.9227 4.1 15.9227 2.94C15.9227 1.38 17.1127 0.599999 19.4927 0.599999H28.1627C30.5227 0.599999 31.7027 1.38 31.7027 2.94C31.7027 4.1 31.0227 4.82 29.6627 5.1C29.2227 5.2 28.1027 5.25 26.3027 5.25V19.23C26.3027 21.59 25.4727 22.77 23.8127 22.77C22.1527 22.77 21.3227 21.59 21.3227 19.23V5.25ZM33.0633 12.72V3.87C33.0633 1.51 33.8933 0.329999 35.5533 0.329999C37.2133 0.329999 38.0433 1.51 38.0433 3.87V12.15C38.0433 16.03 39.5133 17.97 42.4533 17.97C45.3933 17.97 46.8633 16.03 46.8633 12.15V3.87C46.8633 1.51 47.6933 0.329999 49.3533 0.329999C51.0133 0.329999 51.8433 1.51 51.8433 3.87V12.72C51.8433 15.8 51.0533 18.22 49.4733 19.98C47.8333 21.84 45.4933 22.77 42.4533 22.77C39.4133 22.77 37.0733 21.84 35.4333 19.98C33.8533 18.22 33.0633 15.8 33.0633 12.72ZM62.9824 0.3C64.7624 0.3 65.9924 1.26 66.6724 3.18L72.1924 18.93C72.4324 19.61 72.5524 20.13 72.5524 20.49C72.5524 21.17 72.3124 21.72 71.8324 22.14C71.3524 22.56 70.7724 22.77 70.0924 22.77C68.8324 22.77 67.9524 21.98 67.4524 20.4L66.6424 17.82H58.9024L58.0024 20.58C57.5224 22.04 56.7224 22.77 55.6024 22.77C54.9024 22.77 54.3324 22.56 53.8924 22.14C53.4524 21.7 53.2324 21.13 53.2324 20.43C53.2324 19.91 53.3124 19.43 53.4724 18.99L59.1724 3.54C59.9724 1.38 61.2424 0.3 62.9824 0.3ZM62.8324 5.73L60.3424 13.41H65.2924L62.8924 5.73H62.8324ZM79.4105 10.53H81.7205C83.8405 10.53 84.9005 9.62 84.9005 7.8C84.9005 6.06 83.8605 5.19 81.7805 5.19H79.4105V10.53ZM79.4105 13.83V19.23C79.4105 21.59 78.5805 22.77 76.9205 22.77C75.2605 22.77 74.4305 21.59 74.4305 19.23V4.11C74.4305 2.81 74.6805 1.9 75.1805 1.38C75.6805 0.859999 76.5805 0.599999 77.8805 0.599999H81.7505C84.1505 0.599999 86.0905 1.12 87.5705 2.16C89.2505 3.36 90.0905 5.12 90.0905 7.44C90.0905 9.06 89.6205 10.39 88.6805 11.43C87.7605 12.45 86.4905 13.09 84.8705 13.35L88.8005 17.73C89.7805 18.83 90.2705 19.78 90.2705 20.58C90.2705 21.26 90.0405 21.82 89.5805 22.26C89.1405 22.7 88.5805 22.92 87.9005 22.92C87.0605 22.92 86.1705 22.33 85.2305 21.15L79.4105 13.83ZM95.6489 5.25C93.8489 5.25 92.7289 5.2 92.2889 5.1C90.9289 4.82 90.2489 4.1 90.2489 2.94C90.2489 1.38 91.4389 0.599999 93.8189 0.599999H102.489C104.849 0.599999 106.029 1.38 106.029 2.94C106.029 4.1 105.349 4.82 103.989 5.1C103.549 5.2 102.429 5.25 100.629 5.25V19.23C100.629 21.59 99.7989 22.77 98.1389 22.77C96.4789 22.77 95.6489 21.59 95.6489 19.23V5.25Z" fill="#426AFA"/>
<path d="M11.01 27.6C13.37 27.6 14.55 28.38 14.55 29.94C14.55 31.48 13.37 32.25 11.01 32.25H6.93V36.15H10.44C12.8 36.15 13.98 36.92 13.98 38.46C13.98 40 12.8 40.77 10.44 40.77H6.93V44.88H11.16C13.52 44.88 14.7 45.65 14.7 47.19C14.7 48.73 13.52 49.5 11.16 49.5H5.34C4.08 49.5 3.2 49.29 2.7 48.87C2.2 48.43 1.95 47.59 1.95 46.35V31.11C1.95 29.81 2.2 28.9 2.7 28.38C3.2 27.86 4.1 27.6 5.4 27.6H11.01ZM17.3573 49.77C16.7973 49.77 16.2773 49.55 15.7973 49.11C15.3373 48.67 15.1073 48.17 15.1073 47.61C15.1073 46.93 15.4773 46.09 16.2173 45.09L21.5273 37.89L17.5373 32.07C16.7973 30.99 16.4273 30.17 16.4273 29.61C16.4273 28.93 16.6573 28.38 17.1173 27.96C17.5773 27.54 18.1473 27.33 18.8273 27.33C19.7073 27.33 20.5673 27.97 21.4073 29.25L24.4373 33.84L27.6173 29.19C28.4573 27.95 29.3473 27.33 30.2873 27.33C30.8673 27.33 31.3773 27.55 31.8173 27.99C32.2573 28.41 32.4773 28.91 32.4773 29.49C32.4773 30.11 32.0973 30.97 31.3373 32.07L27.3173 37.89L32.6573 45.12C33.4173 46.14 33.7973 46.98 33.7973 47.64C33.7973 48.22 33.5673 48.72 33.1073 49.14C32.6473 49.56 32.1173 49.77 31.5173 49.77C30.5773 49.77 29.6773 49.16 28.8173 47.94L24.3773 41.7L19.9673 47.91C19.0873 49.15 18.2173 49.77 17.3573 49.77ZM44.0632 49.77C40.8432 49.77 38.2732 48.7 36.3532 46.56C34.5332 44.5 33.6232 41.84 33.6232 38.58C33.6232 35.38 34.5632 32.73 36.4432 30.63C38.4032 28.43 40.9632 27.33 44.1232 27.33C45.1232 27.33 45.9932 27.42 46.7332 27.6C47.6732 27.82 48.4932 28.16 49.1932 28.62C50.0932 29.24 50.5432 29.94 50.5432 30.72C50.5432 31.3 50.3432 31.81 49.9432 32.25C49.5432 32.67 49.0532 32.88 48.4732 32.88C47.9732 32.88 47.3532 32.74 46.6132 32.46C45.8732 32.16 45.0532 32.01 44.1532 32.01C42.4132 32.01 41.0732 32.72 40.1332 34.14C39.3132 35.36 38.9032 36.88 38.9032 38.7C38.9032 40.54 39.3332 42.03 40.1932 43.17C41.1532 44.45 42.5232 45.09 44.3032 45.09C45.0832 45.09 45.9532 44.91 46.9132 44.55C47.8732 44.19 48.5132 44.01 48.8332 44.01C49.3932 44.01 49.8632 44.23 50.2432 44.67C50.6232 45.11 50.8132 45.61 50.8132 46.17C50.8132 46.63 50.6532 47.08 50.3332 47.52C49.2332 49.02 47.1432 49.77 44.0632 49.77ZM57.7601 40.65V46.23C57.7601 48.59 56.9301 49.77 55.2701 49.77C53.6101 49.77 52.7801 48.59 52.7801 46.23V30.87C52.7801 28.51 53.6101 27.33 55.2701 27.33C56.9301 27.33 57.7601 28.51 57.7601 30.87V36.03H66.9401V30.87C66.9401 28.51 67.7701 27.33 69.4301 27.33C71.0901 27.33 71.9201 28.51 71.9201 30.87V46.23C71.9201 48.59 71.0901 49.77 69.4301 49.77C67.7701 49.77 66.9401 48.59 66.9401 46.23V40.65H57.7601ZM83.6074 27.3C85.3874 27.3 86.6174 28.26 87.2974 30.18L92.8174 45.93C93.0574 46.61 93.1774 47.13 93.1774 47.49C93.1774 48.17 92.9374 48.72 92.4574 49.14C91.9774 49.56 91.3974 49.77 90.7174 49.77C89.4574 49.77 88.5774 48.98 88.0774 47.4L87.2674 44.82H79.5274L78.6274 47.58C78.1474 49.04 77.3474 49.77 76.2274 49.77C75.5274 49.77 74.9574 49.56 74.5174 49.14C74.0774 48.7 73.8574 48.13 73.8574 47.43C73.8574 46.91 73.9374 46.43 74.0974 45.99L79.7974 30.54C80.5974 28.38 81.8674 27.3 83.6074 27.3ZM83.4574 32.73L80.9674 40.41H85.9174L83.5174 32.73H83.4574ZM97.5455 49.77C95.8855 49.77 95.0555 48.59 95.0555 46.23V30.69C95.0555 28.45 95.8255 27.33 97.3655 27.33C98.3055 27.33 99.1855 27.87 100.005 28.95L109.215 41.13V30.87C109.215 28.51 110.045 27.33 111.705 27.33C113.365 27.33 114.195 28.51 114.195 30.87V46.8C114.195 48.86 113.435 49.89 111.915 49.89C110.915 49.89 109.965 49.29 109.065 48.09L100.035 36.15V46.23C100.035 48.59 99.2055 49.77 97.5455 49.77ZM130.173 36.39H133.773C134.953 36.39 135.813 36.64 136.353 37.14C136.893 37.62 137.163 38.44 137.163 39.6C137.163 42.62 136.253 45.07 134.433 46.95C132.613 48.83 130.203 49.77 127.203 49.77C124.063 49.77 121.553 48.66 119.673 46.44C117.873 44.34 116.973 41.7 116.973 38.52C116.973 35.16 117.933 32.46 119.853 30.42C121.773 28.36 124.403 27.33 127.743 27.33C129.163 27.33 130.503 27.53 131.763 27.93C133.303 28.43 134.403 29.16 135.063 30.12C135.423 30.64 135.603 31.16 135.603 31.68C135.603 32.28 135.403 32.81 135.003 33.27C134.603 33.73 134.113 33.96 133.533 33.96C133.193 33.96 132.393 33.63 131.133 32.97C129.893 32.29 128.713 31.95 127.593 31.95C125.813 31.95 124.443 32.61 123.483 33.93C122.643 35.07 122.223 36.57 122.223 38.43C122.223 40.29 122.633 41.83 123.453 43.05C124.413 44.45 125.783 45.15 127.563 45.15C128.863 45.15 129.903 44.77 130.683 44.01C131.483 43.25 131.883 42.22 131.883 40.92C130.163 40.92 129.093 40.87 128.673 40.77C127.393 40.49 126.753 39.79 126.753 38.67C126.753 37.15 127.893 36.39 130.173 36.39ZM148.793 27.6C151.153 27.6 152.333 28.38 152.333 29.94C152.333 31.48 151.153 32.25 148.793 32.25H144.713V36.15H148.223C150.583 36.15 151.763 36.92 151.763 38.46C151.763 40 150.583 40.77 148.223 40.77H144.713V44.88H148.943C151.303 44.88 152.483 45.65 152.483 47.19C152.483 48.73 151.303 49.5 148.943 49.5H143.123C141.863 49.5 140.983 49.29 140.483 48.87C139.983 48.43 139.733 47.59 139.733 46.35V31.11C139.733 29.81 139.983 28.9 140.483 28.38C140.983 27.86 141.883 27.6 143.183 27.6H148.793Z" fill="black"/>
</svg>
