<svg width="153" height="51" viewBox="0 0 153 51" fill="none" xmlns="http://www.w3.org/2000/svg">
<path d="M15.93 16.13C15.93 18.39 15.09 20.17 13.41 21.47C11.89 22.67 9.97 23.27 7.65 23.27C6.45 23.27 5.3 23.11 4.2 22.79C2.84 22.41 1.86 21.85 1.26 21.11C0.92 20.69 0.75 20.27 0.75 19.85C0.75 19.17 0.98 18.64 1.44 18.26C1.9 17.88 2.47 17.69 3.15 17.69C3.51 17.69 4.27 17.86 5.43 18.2C6.67 18.56 7.64 18.74 8.34 18.74C9.02 18.74 9.59 18.55 10.05 18.17C10.53 17.77 10.77 17.24 10.77 16.58C10.77 15.72 10.44 15.1 9.78 14.72C9.2 14.38 8.28 14.02 7.02 13.64C5.1 13.06 3.7 12.4 2.82 11.66C1.6 10.66 0.99 9.3 0.99 7.58C0.99 5.48 1.77 3.81 3.33 2.57C4.79 1.41 6.59 0.829999 8.73 0.829999C10.53 0.829999 11.95 1.14 12.99 1.76C14.05 2.38 14.58 3.11 14.58 3.95C14.58 5.33 13.84 6.02 12.36 6.02C11.92 6.02 11.3 5.9 10.5 5.66C9.72 5.4 9.08 5.27 8.58 5.27C7.94 5.27 7.4 5.41 6.96 5.69C6.46 6.01 6.21 6.48 6.21 7.1C6.21 7.46 6.3 7.77 6.48 8.03C6.72 8.37 7.27 8.7 8.13 9.02C8.77 9.22 9.41 9.42 10.05 9.62C11.91 10.26 13.29 11.01 14.19 11.87C15.35 12.97 15.93 14.39 15.93 16.13ZM21.3227 5.75C19.5227 5.75 18.4027 5.7 17.9627 5.6C16.6027 5.32 15.9227 4.6 15.9227 3.44C15.9227 1.88 17.1127 1.1 19.4927 1.1H28.1627C30.5227 1.1 31.7027 1.88 31.7027 3.44C31.7027 4.6 31.0227 5.32 29.6627 5.6C29.2227 5.7 28.1027 5.75 26.3027 5.75V19.73C26.3027 22.09 25.4727 23.27 23.8127 23.27C22.1527 23.27 21.3227 22.09 21.3227 19.73V5.75ZM33.0633 13.22V4.37C33.0633 2.01 33.8933 0.829999 35.5533 0.829999C37.2133 0.829999 38.0433 2.01 38.0433 4.37V12.65C38.0433 16.53 39.5133 18.47 42.4533 18.47C45.3933 18.47 46.8633 16.53 46.8633 12.65V4.37C46.8633 2.01 47.6933 0.829999 49.3533 0.829999C51.0133 0.829999 51.8433 2.01 51.8433 4.37V13.22C51.8433 16.3 51.0533 18.72 49.4733 20.48C47.8333 22.34 45.4933 23.27 42.4533 23.27C39.4133 23.27 37.0733 22.34 35.4333 20.48C33.8533 18.72 33.0633 16.3 33.0633 13.22ZM62.9824 0.8C64.7624 0.8 65.9924 1.76 66.6724 3.68L72.1924 19.43C72.4324 20.11 72.5524 20.63 72.5524 20.99C72.5524 21.67 72.3124 22.22 71.8324 22.64C71.3524 23.06 70.7724 23.27 70.0924 23.27C68.8324 23.27 67.9524 22.48 67.4524 20.9L66.6424 18.32H58.9024L58.0024 21.08C57.5224 22.54 56.7224 23.27 55.6024 23.27C54.9024 23.27 54.3324 23.06 53.8924 22.64C53.4524 22.2 53.2324 21.63 53.2324 20.93C53.2324 20.41 53.3124 19.93 53.4724 19.49L59.1724 4.04C59.9724 1.88 61.2424 0.8 62.9824 0.8ZM62.8324 6.23L60.3424 13.91H65.2924L62.8924 6.23H62.8324ZM79.4105 11.03H81.7205C83.8405 11.03 84.9005 10.12 84.9005 8.3C84.9005 6.56 83.8605 5.69 81.7805 5.69H79.4105V11.03ZM79.4105 14.33V19.73C79.4105 22.09 78.5805 23.27 76.9205 23.27C75.2605 23.27 74.4305 22.09 74.4305 19.73V4.61C74.4305 3.31 74.6805 2.4 75.1805 1.88C75.6805 1.36 76.5805 1.1 77.8805 1.1H81.7505C84.1505 1.1 86.0905 1.62 87.5705 2.66C89.2505 3.86 90.0905 5.62 90.0905 7.94C90.0905 9.56 89.6205 10.89 88.6805 11.93C87.7605 12.95 86.4905 13.59 84.8705 13.85L88.8005 18.23C89.7805 19.33 90.2705 20.28 90.2705 21.08C90.2705 21.76 90.0405 22.32 89.5805 22.76C89.1405 23.2 88.5805 23.42 87.9005 23.42C87.0605 23.42 86.1705 22.83 85.2305 21.65L79.4105 14.33ZM95.6489 5.75C93.8489 5.75 92.7289 5.7 92.2889 5.6C90.9289 5.32 90.2489 4.6 90.2489 3.44C90.2489 1.88 91.4389 1.1 93.8189 1.1H102.489C104.849 1.1 106.029 1.88 106.029 3.44C106.029 4.6 105.349 5.32 103.989 5.6C103.549 5.7 102.429 5.75 100.629 5.75V19.73C100.629 22.09 99.7989 23.27 98.1389 23.27C96.4789 23.27 95.6489 22.09 95.6489 19.73V5.75Z" fill="#426AFA"/>
<path d="M11.01 28.1C13.37 28.1 14.55 28.88 14.55 30.44C14.55 31.98 13.37 32.75 11.01 32.75H6.93V36.65H10.44C12.8 36.65 13.98 37.42 13.98 38.96C13.98 40.5 12.8 41.27 10.44 41.27H6.93V45.38H11.16C13.52 45.38 14.7 46.15 14.7 47.69C14.7 49.23 13.52 50 11.16 50H5.34C4.08 50 3.2 49.79 2.7 49.37C2.2 48.93 1.95 48.09 1.95 46.85V31.61C1.95 30.31 2.2 29.4 2.7 28.88C3.2 28.36 4.1 28.1 5.4 28.1H11.01ZM17.3573 50.27C16.7973 50.27 16.2773 50.05 15.7973 49.61C15.3373 49.17 15.1073 48.67 15.1073 48.11C15.1073 47.43 15.4773 46.59 16.2173 45.59L21.5273 38.39L17.5373 32.57C16.7973 31.49 16.4273 30.67 16.4273 30.11C16.4273 29.43 16.6573 28.88 17.1173 28.46C17.5773 28.04 18.1473 27.83 18.8273 27.83C19.7073 27.83 20.5673 28.47 21.4073 29.75L24.4373 34.34L27.6173 29.69C28.4573 28.45 29.3473 27.83 30.2873 27.83C30.8673 27.83 31.3773 28.05 31.8173 28.49C32.2573 28.91 32.4773 29.41 32.4773 29.99C32.4773 30.61 32.0973 31.47 31.3373 32.57L27.3173 38.39L32.6573 45.62C33.4173 46.64 33.7973 47.48 33.7973 48.14C33.7973 48.72 33.5673 49.22 33.1073 49.64C32.6473 50.06 32.1173 50.27 31.5173 50.27C30.5773 50.27 29.6773 49.66 28.8173 48.44L24.3773 42.2L19.9673 48.41C19.0873 49.65 18.2173 50.27 17.3573 50.27ZM44.0632 50.27C40.8432 50.27 38.2732 49.2 36.3532 47.06C34.5332 45 33.6232 42.34 33.6232 39.08C33.6232 35.88 34.5632 33.23 36.4432 31.13C38.4032 28.93 40.9632 27.83 44.1232 27.83C45.1232 27.83 45.9932 27.92 46.7332 28.1C47.6732 28.32 48.4932 28.66 49.1932 29.12C50.0932 29.74 50.5432 30.44 50.5432 31.22C50.5432 31.8 50.3432 32.31 49.9432 32.75C49.5432 33.17 49.0532 33.38 48.4732 33.38C47.9732 33.38 47.3532 33.24 46.6132 32.96C45.8732 32.66 45.0532 32.51 44.1532 32.51C42.4132 32.51 41.0732 33.22 40.1332 34.64C39.3132 35.86 38.9032 37.38 38.9032 39.2C38.9032 41.04 39.3332 42.53 40.1932 43.67C41.1532 44.95 42.5232 45.59 44.3032 45.59C45.0832 45.59 45.9532 45.41 46.9132 45.05C47.8732 44.69 48.5132 44.51 48.8332 44.51C49.3932 44.51 49.8632 44.73 50.2432 45.17C50.6232 45.61 50.8132 46.11 50.8132 46.67C50.8132 47.13 50.6532 47.58 50.3332 48.02C49.2332 49.52 47.1432 50.27 44.0632 50.27ZM57.7601 41.15V46.73C57.7601 49.09 56.9301 50.27 55.2701 50.27C53.6101 50.27 52.7801 49.09 52.7801 46.73V31.37C52.7801 29.01 53.6101 27.83 55.2701 27.83C56.9301 27.83 57.7601 29.01 57.7601 31.37V36.53H66.9401V31.37C66.9401 29.01 67.7701 27.83 69.4301 27.83C71.0901 27.83 71.9201 29.01 71.9201 31.37V46.73C71.9201 49.09 71.0901 50.27 69.4301 50.27C67.7701 50.27 66.9401 49.09 66.9401 46.73V41.15H57.7601ZM83.6074 27.8C85.3874 27.8 86.6174 28.76 87.2974 30.68L92.8174 46.43C93.0574 47.11 93.1774 47.63 93.1774 47.99C93.1774 48.67 92.9374 49.22 92.4574 49.64C91.9774 50.06 91.3974 50.27 90.7174 50.27C89.4574 50.27 88.5774 49.48 88.0774 47.9L87.2674 45.32H79.5274L78.6274 48.08C78.1474 49.54 77.3474 50.27 76.2274 50.27C75.5274 50.27 74.9574 50.06 74.5174 49.64C74.0774 49.2 73.8574 48.63 73.8574 47.93C73.8574 47.41 73.9374 46.93 74.0974 46.49L79.7974 31.04C80.5974 28.88 81.8674 27.8 83.6074 27.8ZM83.4574 33.23L80.9674 40.91H85.9174L83.5174 33.23H83.4574ZM97.5455 50.27C95.8855 50.27 95.0555 49.09 95.0555 46.73V31.19C95.0555 28.95 95.8255 27.83 97.3655 27.83C98.3055 27.83 99.1855 28.37 100.005 29.45L109.215 41.63V31.37C109.215 29.01 110.045 27.83 111.705 27.83C113.365 27.83 114.195 29.01 114.195 31.37V47.3C114.195 49.36 113.435 50.39 111.915 50.39C110.915 50.39 109.965 49.79 109.065 48.59L100.035 36.65V46.73C100.035 49.09 99.2055 50.27 97.5455 50.27ZM130.173 36.89H133.773C134.953 36.89 135.813 37.14 136.353 37.64C136.893 38.12 137.163 38.94 137.163 40.1C137.163 43.12 136.253 45.57 134.433 47.45C132.613 49.33 130.203 50.27 127.203 50.27C124.063 50.27 121.553 49.16 119.673 46.94C117.873 44.84 116.973 42.2 116.973 39.02C116.973 35.66 117.933 32.96 119.853 30.92C121.773 28.86 124.403 27.83 127.743 27.83C129.163 27.83 130.503 28.03 131.763 28.43C133.303 28.93 134.403 29.66 135.063 30.62C135.423 31.14 135.603 31.66 135.603 32.18C135.603 32.78 135.403 33.31 135.003 33.77C134.603 34.23 134.113 34.46 133.533 34.46C133.193 34.46 132.393 34.13 131.133 33.47C129.893 32.79 128.713 32.45 127.593 32.45C125.813 32.45 124.443 33.11 123.483 34.43C122.643 35.57 122.223 37.07 122.223 38.93C122.223 40.79 122.633 42.33 123.453 43.55C124.413 44.95 125.783 45.65 127.563 45.65C128.863 45.65 129.903 45.27 130.683 44.51C131.483 43.75 131.883 42.72 131.883 41.42C130.163 41.42 129.093 41.37 128.673 41.27C127.393 40.99 126.753 40.29 126.753 39.17C126.753 37.65 127.893 36.89 130.173 36.89ZM148.793 28.1C151.153 28.1 152.333 28.88 152.333 30.44C152.333 31.98 151.153 32.75 148.793 32.75H144.713V36.65H148.223C150.583 36.65 151.763 37.42 151.763 38.96C151.763 40.5 150.583 41.27 148.223 41.27H144.713V45.38H148.943C151.303 45.38 152.483 46.15 152.483 47.69C152.483 49.23 151.303 50 148.943 50H143.123C141.863 50 140.983 49.79 140.483 49.37C139.983 48.93 139.733 48.09 139.733 46.85V31.61C139.733 30.31 139.983 29.4 140.483 28.88C140.983 28.36 141.883 28.1 143.183 28.1H148.793Z" fill="black"/>
</svg>
